<?xml version="1.0" encoding="UTF-8"?>
<svg id="Layer_1" xmlns="http://www.w3.org/2000/svg" version="1.1" viewBox="0 0 215 89">
  <!-- Generator: Adobe Illustrator 29.3.1, SVG Export Plug-In . SVG Version: 2.1.0 Build 151)  -->
  <defs>
    <style>
      .st0 {
        fill: #fff;
      }

      .st1 {
        fill: #ee7623;
      }
    </style>
  </defs>
  <path class="st0" d="M55.1,74.9V21.8H5.6c3.3,7.8,4.3,19.1,1.6,33.1-1.2,5.6-3,11-5.4,16.1-1.1,2.4-1.9,3.9-1.9,3.9h55.2Z"/>
  <path class="st1" d="M55.1,74.9V21.8H20.9c14.3,4,24.4,11.8,24.6,21.6.6,24.2-42.7,31.5-42.7,31.5h52.3ZM11.2,22.3c4.4,2.3,7.7,6.1,9.5,10.8.7,1.7,1.1,3.5,1.4,5.3,4.4.5,8.8,1.3,13,2.4h0c-1.9-9-10-16-23.9-18.4h0ZM6.1,22.9c1.6,4.6,2.5,9.5,2.7,14.4,3.9.2,7.4.4,10.8.8-.4-2.2-1.1-4.3-2.1-6.3-2.3-4.5-6.4-7.7-11.3-8.9h0ZM1.9,71.1c6.1-3.1,11-8.1,14.2-14.1-5.5.5-9.4.7-9.4.7-1.2,4.6-2.8,9.1-4.8,13.4h0ZM17.3,54.5c2-4.4,2.9-9.2,2.6-14-3.7-.4-7.4-.7-11-.9,0,4.8-.5,9.6-1.4,14.4,0,.5,0,.6-.2,1.1h.7c3.3,0,6-.3,9.4-.7h-.1ZM6.2,71.3c11.8-1.7,21.5-8.9,26.2-16.9-4.4,1-8.9,1.7-13.5,2.2-2.7,6-7.1,11.2-12.7,14.7h0ZM41.5,51.3c-1.9,1-3.9,1.7-5.9,2.2-2.2,4.4-5.4,8.3-9.4,11.2,7.2-3.8,12.6-8.5,15.2-13.5h.1ZM42.9,47.1c0-1.1-1.8-2.2-5.1-3.3h0c0,2.4-.3,4.8-1.1,7,3.8-1.2,6.2-2.5,6.2-3.8h0ZM37.5,41.4h0c2,.6,3.9,1.5,5.6,2.5v-.4c-.5-6.6-5.6-12.2-13.8-16.2,4.6,4,7.4,8.6,8.2,14h0ZM22.2,40.8c.2,4.6-.6,9.1-2.3,13.4,4.7-.6,9.3-1.4,13.8-2.6,1.2-2.7,1.8-5.6,1.6-8.5-4.3-1.1-8.7-1.9-13.2-2.4h.1Z"/>
  <path class="st0" d="M74,27.9c0,2.7-1.7,4.6-4,4.6h-3.7v-9h4c2.1,0,3.7,1.9,3.7,4.4h0ZM66.3,34.1h4.1c2.8,0,4.9,2.2,4.9,5.2s-1.9,4.8-4.9,4.8h-4.1v-10h0ZM77.4,27.8c0-3.3-2.7-6-6-5.9h-11v1.3h2.8v21.2h-2.8v1.3h11.7c3.7,0,6.4-2.7,6.4-6.2s-1.3-4.6-3.6-5.6c-.9-.4-1.9-.7-2.9-.8,2.9-.2,5.3-2.6,5.3-5.4h0ZM90.6,44.4h-3.5v-9.6c2-2.4,2.6-3,3.3-3s.9.3,1.6,1l2.1-2.5-1.1-1c-.3-.2-.6-.4-1-.3-1.3,0-2.2.8-4.9,4.1v-4.1h-.7l-5.2,1.4v1h3.2v13h-2.8v1.3h9v-1.3h0ZM106.2,35h-8.4c.3-2.8,2.2-4.6,4.8-4.6s3.6,1.5,3.6,3.5v.3s0,.9,0,.8ZM109.2,36.4v-1c0-3.9-2.7-6.6-6.6-6.6s-7.8,3.7-7.8,8.8,3.3,8.6,7.9,8.6,3.4-.4,6.1-2l-.7-1.3c-2,1.3-3,1.7-4.5,1.7-3.4,0-5.8-3.1-5.8-7.7v-.4h11.4ZM123.8,41.8c-.5.4-.8.6-1.1.8-1.2,1-1.8,1.2-2.9,1.2-3,0-4.7-2.4-4.7-6.5s2.4-7,5.9-7,2.9.8,2.9,3v8.4h-.1ZM129.7,44.7v-1h-3.1v-24.7h-.7l-5.2,1.4v1h3.1v8.4c-1-.6-2.1-.9-3.3-.9-4.7,0-8.6,4-8.6,9s3,8.3,6.7,8.3,3.1-.7,5.1-2.6v2.5h.7l5.2-1.4h.1ZM141.1,42.1c-1.6,1.4-2.5,1.9-3.7,1.9s-2.4-.9-2.5-2.2v-2.1l6.2-1.4v3.8ZM146.6,45v-1h-2.8v-11.2c0-2.4-2.1-4-5.3-4s-5.7,1.6-5.7,3.7,0,.7.3,1l3.2-.9v-1.7c.7-.4,1.5-.6,2.2-.6,1.4,0,2.5,1,2.5,2.4h0v4.2l-6.2,1.4c-1.7.4-3,2-2.9,3.8,0,2.3,1.8,4.1,4.1,4.2h.3c1.9,0,3.3-.8,4.8-2.6v.4c0,1.3.6,2.1,1.8,2.1s.8-.1,1.2-.2l2.4-.8h0v-.2ZM84.4,51h-7.3v1.3h2.7v13.7c0,4.4-2.8,7.3-6.9,7.3s-6.6-2.9-6.6-7.2v-13.7h2.7v-1.3h-8.6v1.3h2.8v14.8c0,4.7,3.9,8.2,9.1,8.2s3.5-.4,5-1.2c3-1.6,4.4-4.1,4.4-8v-13.8h2.7v-1.3h0ZM104.6,73.6h-2.7v-11c0-2.8-1.7-4.5-4.4-4.5s-3.9,1-6.6,4.1v-4.1h-.6l-5.2,1.4v1h3.1v13.1h-2.8v1.3h8.2v-1.3h-2.7v-9.4c3.2-3.6,4.1-4.3,5.6-4.3s2.6,1.2,2.6,3.1v10.6h-2.7v1.3h8.2v-1.3ZM115.4,73.6h-2.8v-15.4h-.7l-5.2,1.4v1h3.2v13.1h-2.8v1.3h8.2v-1.3h.1ZM109.2,51.9c0,1,.8,1.9,1.9,1.9s1.9-.8,1.9-1.9-.8-1.9-1.9-1.9-1.9.8-1.9,1.9M131.7,58.9h-5.6v1.3h2.4l-4.1,10.3-4.3-10.3h2.5v-1.3h-7v1.3h1.5l6.3,15.2h.7l5.9-15.2h1.5v-1.3h.2ZM143.7,64.3h-8.4c.3-2.8,2.2-4.6,4.8-4.6s3.6,1.5,3.6,3.5v1.1h0ZM146.6,65.7v-1c0-3.9-2.7-6.6-6.6-6.6s-7.8,3.7-7.8,8.8,3.3,8.6,7.9,8.6,3.4-.4,6.1-2l-.7-1.3c-2,1.3-3,1.7-4.5,1.7-3.4,0-5.8-3.1-5.8-7.7v-.4h11.4ZM158.3,73.6h-3.5v-9.6c2-2.4,2.6-3,3.3-3s.9.3,1.6,1l2.1-2.5-1.1-1c-.3-.2-.6-.3-1-.3-1.3,0-2.2.8-4.9,4.1v-4.1h-.6l-5.2,1.4v1h3.1v13.1h-2.7v1.3h8.9v-1.3h0ZM165.3,74c1.1,1,2.6,1.5,4.6,1.5,3.2,0,5.5-2,5.5-4.9s-1.1-3.5-4.7-4.9c-4.4-1.8-4.6-2-4.6-3.5s1.2-2.6,3.1-2.6,3.6,1.2,3.6,2.6,0,.8-.2,1.2h1.6l.9-5.2h-1.6l-.2,1.3c-1.1-.9-2.4-1.3-3.8-1.2-3.3,0-5.6,1.9-5.6,4.8s1.2,3.6,4.7,5c3.8,1.5,4.8,2.3,4.8,3.8s-1.5,2.5-3.5,2.5-4.3-1.4-4.3-2.9v-1h-1.7v5.1h1.4v-1.3h0v-.3ZM186.4,73.6h-2.8v-15.4h-.6l-5.2,1.4v1h3.1v13.1h-2.8v1.3h8.2v-1.3h.1ZM180.2,51.9c0,1,.8,1.9,1.9,1.9s1.9-.8,1.9-1.9-.8-1.9-1.9-1.9-1.9.8-1.9,1.9M196.9,72.4c-1.2.7-1.7.9-2.5.9-1.2,0-1.7-.5-1.7-1.9v-10.9h4.5v-1.7h-4.5v-5.1h-2.6v5l-3.2.8v1h3.2v11.2c0,2.2,1.2,3.5,3.4,3.5s2.1-.3,4-1.9l-.6-1h0ZM214.5,58.9h-5.6v1.4h2.4l-4.1,10.3-4.4-10.3h2.6v-1.4h-7v1.4h1.5l5.9,14c-.5,1.6-1.3,3.1-2.4,4.4-1.1,1.5-1.8,2-3.8,3.1l2.4,2.4c.7-.9,1.1-1.5,1.4-2,1.4-2,2.5-4.2,3.4-6.5l6.1-15.5h1.5v-1.4h.1ZM68.5,84.9c0,1.6-1,2.9-2.2,2.9s-2.2-1.3-2.2-2.9,1-2.9,2.2-2.9,2.2,1.3,2.2,2.9M69.7,84.9c0-1.9-1.6-3.4-3.5-3.3-1.9,0-3.4,1.6-3.3,3.5,0,1.8,1.6,3.3,3.4,3.3s3.4-1.6,3.4-3.5M76,82.9v-1.6h-.5v.3h-4.5v.5h1.1v5.6h-1.1v.5h3.2v-.5h-1.1v-2.6h1.8v.7h.5v-2h-.5v.7h-1.8v-2.4h2.4v.8s.5,0,.5,0ZM83.7,85.6h-2.1l1.1-2.5s1.1,2.5,1,2.5ZM86.3,88.2v-.5h-.6l-2.6-6.3h-.4l-2.8,6.3h-.5v.5h2v-.5h-.8l.7-1.6h2.6l.6,1.6h-.6v.5h2.4ZM93.2,83.5c0-1-.8-1.9-1.8-2h-3.8v.6h1.1v5.5h-1.1v.5h3.2v-.5h-1.1v-5.5h.8c.7,0,1.3.4,1.4,1.1v.3c0,.8-.6,1.5-1.3,1.5h-.3v.5h.6c1.2,0,2.2-.8,2.3-2h0M100.1,83.5c0-1-.8-1.9-1.8-2h-3.8v.6h1.1v5.5h-1.1v.5h3.2v-.5h-1.1v-5.5h.8c.7,0,1.3.4,1.4,1.1v.3c0,.8-.6,1.5-1.3,1.5h-.3v.5h.6c1.2,0,2.2-.8,2.3-2h0M106.7,88.2v-1.4h-.5v.9h-2.4v-5.5h1.1v-.6h-3.2v.6h1.1v5.5h-1.1v.5h5.1,0ZM111.4,88.2v-.5h-1.1v-5.5h1.1v-.6h-3.2v.6h1.1v5.5h-1.1v.5h3.2ZM118.4,88.2v-1.3h-.5v.8h-2.4v-2.5h1.8v.7h.5v-2h-.5v.7h-1.8v-2.4h2.4v.8h.5v-1.6h-.5v.3h-4.5v.5h1.1v5.6h-1.1v.5h5.1,0ZM125.9,84.9c0,1.6-1,2.7-2.4,2.7h-1.1v-5.5h1.1c1.3,0,2.3,1.2,2.3,2.8M127.2,84.9c0-1.9-1.6-3.4-3.4-3.3h-3.4v.5h1.1v5.6h-1.1v.5h3.4c1.8,0,3.4-1.3,3.5-3.2v-.2M135.7,86.5c0-.9-.3-1.4-1.6-2.1l-1-.6c-.5-.3-.6-.5-.6-.9,0-.6.4-1,1.1-1s.8,0,1.2.4v.7h.5v-1.7h-.5v.4c-.4-.2-.9-.3-1.3-.3-1.1,0-2,.8-2.1,1.8h0c0,.8.4,1.4,1.7,2s1.6,1,1.6,1.5-.5,1-1.2,1-1-.2-1.5-.5v-.8h-.5v1.8h.5v-.4c.5.3,1.1.5,1.6.5,1.1,0,2-.7,2.1-1.8h0M143.1,87.9v-1.3h-.5v.7c-.5.3-1,.5-1.5.5-1.6,0-2.8-1.3-2.8-2.9h0c-.1-1.5,1-2.8,2.4-2.9h.1c.6,0,1.2.2,1.7.6v.5h.5v-1.7h-.5v.4c-.5-.3-1.1-.4-1.7-.4-2.2,0-3.8,1.5-3.8,3.5s1.6,3.5,3.8,3.5,1.6,0,2.3-.5M147.9,88.2v-.5h-1.1v-5.5h1.1v-.6h-3.3v.6h1.1v5.5h-1.1v.5h3.3ZM155,88.2v-1.3h-.5v.8h-2.4v-2.5h1.8v.7h.5v-2h-.5v.7h-1.8v-2.4h2.4v.8h.5v-1.6h-.5v.3h-4.5v.5h1.1v5.6h-1.1v.5h5.1-.1ZM164.3,82.2v-.6h-2.9v.6h1.1v4.1l-4-4.7h-1.9v.6h1l.3.4v5.2h-1.1v.5h2.9v-.5h-1.1v-4.2l4.2,4.9h.4v-6.2h1.1ZM171.1,87.9v-1.3h-.5v.7c-.5.3-1,.5-1.5.5-1.6,0-2.8-1.3-2.8-2.9h0c-.1-1.5,1-2.8,2.4-2.9h.1c.6,0,1.2.2,1.7.6v.5h.5v-1.7h-.5v.4c-.5-.3-1.1-.4-1.7-.4-2.2,0-3.8,1.5-3.8,3.5s1.6,3.5,3.8,3.5,1.6,0,2.3-.5M177.8,88.2v-1.3h-.5v.8h-2.4v-2.5h1.8v.7h.5v-2h-.5v.7h-1.8v-2.4h2.4v.8h.5v-1.6h-.5v.3h-4.5v.5h1.1v5.6h-1.1v.5h5.2-.2ZM183.9,86.5c0-.9-.4-1.4-1.6-2.1l-1-.6c-.5-.3-.6-.5-.6-.9s.5-1,1-1h.1c.4,0,.8,0,1.2.4v.7h.5v-1.7h-.5v.4c-.4-.2-.8-.3-1.3-.3-1.1,0-2,.8-2.1,1.8h0c0,.8.4,1.4,1.7,2s1.6,1,1.6,1.5-.5,1-1.2,1-1-.2-1.5-.5v-.8h-.5v1.8h.5v-.4c.5.3,1.1.5,1.6.5,1.1,0,2-.7,2.1-1.8h0"/>
</svg>