<?xml version="1.0" encoding="UTF-8"?>
<svg id="Layer_1" xmlns="http://www.w3.org/2000/svg" version="1.1" viewBox="0 0 54 54">
  <!-- Generator: Adobe Illustrator 29.3.1, SVG Export Plug-In . SVG Version: 2.1.0 Build 151)  -->
  <defs>
    <style>
      .st0 {
        fill: #fff;
      }
    </style>
  </defs>
  <path class="st0" d="M27.6,23.3c0,0,.1.1.2.2,0,0,.1.2,0,.2,0,.1,0,.3-.1.4,0,0,0,.1,0,.2,0,.1,0,.2.1.3,0,0,0,0,0,.1,0,.1,0,.1.1.2.2,0,.4,0,.6,0,.2,0,.4,0,.6,0,0,0,.2,0,.3,0,0,0,0,0,0,0,0,0,0,.2,0,.2,0,0,.1.1.2.1.1,0,.2,0,.3.1,0,0,.1,0,0,.2,0,0,0,.1,0,.2,0,0,0,0,.1,0,0,0,.2,0,.3,0,.1,0,.2,0,.3.1,0,.1.2.2.2.3,0,.1.2.2.2.4,0,0,0,0,0,.1,0,0,0,0,.2,0,0,0,.1,0,.2,0,0,0,0,0,0,0,0,0,0-.1,0-.1,0,0,.2,0,.2,0,.2,0,.5,0,.7,0,0,0,.2,0,.3,0,0,0,.1,0,.2,0,.4-.1.8,0,1.1,0,.4,0,.8,0,1.2,0,.1,0,.3,0,.3-.2,0,0,0-.2,0-.2-.2,0-.4-.1-.7,0,0,0-.1,0-.2,0-.2,0-.4,0-.6,0,0,0,0,0,0,0-.1,0-.2,0-.3,0-.1,0-.2,0-.4,0,0,0,0,0,0,0-.5,0-1,0-1.5,0,0,0,0,0-.1,0,0,0,0,0,0,0,0,0,0-.1,0-.2,0,0,0,0,0,0,0,0,0,0,0-.1,0-.2,0-.3,0-.4,0,0,0,0,0,0,.1,0,.2,0,.4,0,0,0,0,0,.1,0,.2,0,.4,0,.6,0,.2,0,.4,0,.5,0,0,0,.1,0,.2,0,.2.1.3,0,.5,0,.2,0,.4,0,.6,0,.3,0,.7,0,1,0,.3,0,.7,0,1,0,.1,0,.2,0,.3,0,.2,0,.3,0,.5,0,.2,0,.3.1.5.2.1,0,.2.2.2.4,0,.1,0,.1.1.1,0,0,.1,0,.2,0,.1,0,.1,0,.1.1,0,0,0,.2,0,.3,0,0,0,0,0,.1,0,.1,0,.2,0,.3,0,0-.2.1-.3.2-.2,0-.4.1-.5.2,0,0,0,0-.1,0,0,0,.2,0,.2,0,.2,0,.5.1.6.3.1.1.2.2.2.4,0,0,0,0,0,.1,0,.2,0,.4-.2.6-.1.1-.3.2-.4.3,0,0-.2.1-.3.1-.1,0-.2,0-.3,0-.2,0-.4,0-.5,0-.2,0-.5,0-.7,0-.2,0-.4,0-.6,0-.4,0-.7,0-1.1,0s-.6,0-.8,0c-.1,0-.2,0-.3,0,0,0-.1,0-.2,0,0,0,0,0-.1,0-.2,0-.4,0-.6,0-.2,0-.4,0-.6.1,0,0-.1,0-.2,0,0,0,0-.1,0-.2,0-.2,0-.4,0-.7,0,0,0-.2-.1-.3,0,0,0,0,0-.1,0,0,0,0,0,0,0,0,.2,0,.2,0,0,0,.2,0,.3,0,.5,0,1.1,0,1.6,0,.2,0,.5,0,.7,0,.3,0,.5,0,.8-.1.1,0,.3-.2.3-.4,0,0,0,0-.1,0-.2,0-.3,0-.5,0-.3,0-.7,0-1,0-.4,0-.9,0-1.3,0-.2,0-.5,0-.7,0,0,0-.1,0-.1,0,0,0,0,0-.2,0,0,0-.1,0-.2.1,0,0-.1.2-.2.3,0,.1-.2.2-.3.3-.1.1-.3.2-.5.4,0,0-.2.1-.3.2-.1,0,0,.2-.1.3,0,.1,0,.3,0,.4,0,0,0,0,0,0,0,0,0,0,0,0,0-.1,0-.2,0-.3,0-.2-.1-.2-.3-.2-.3,0-.5.1-.8.2-.1,0-.2,0-.3,0-.1,0-.2,0-.4,0,0,0-.1,0-.2,0,0,0-.2,0-.3,0,0,0,0,0,0,0,0,0,0,0,0,0,.2.2.1.5,0,.7,0,.1,0,.2-.1.3,0,0,0,0,0,0,0,.2,0,.3-.3.3,0,0,0,0,0,0h0s0,0-.1,0c0,0,0,0-.1-.1,0-.2,0-.4,0-.7,0-.1,0-.2,0-.3,0,0,0-.3,0-.3,0,0-.1,0-.2,0,0,0-.1,0-.2,0,0,0,0,0,0,0,0,0-.2,0-.3,0-.1,0-.3,0-.4,0,0,0-.1,0-.2,0-.1,0-.2,0-.3,0-.2,0-.4-.1-.7-.2-.1,0-.3-.1-.4-.2-.2,0-.4-.2-.5-.3-.3-.2-.6-.4-.7-.7,0,0,0,0-.1-.1,0,0,0-.2,0-.3-.1,0-.2,0-.3,0-.2,0-.5,0-.7,0,0,0,0,0-.1,0-.2,0-.4,0-.5,0-.1,0-.2-.2-.1-.3,0-.1.1-.2.2-.3,0,0,0,0,0,0,.2,0,.4,0,.6,0,0,0,0,0,0,0,.2,0,.4,0,.6,0,0,0,0,0,.1,0,.1,0,.1,0,.2-.1,0-.1,0-.3.2-.4.1-.2.3-.3.5-.4,0,0,0,0,.1,0,.2-.1.4-.2.7-.3,0,0,.1,0,.2,0,0,0,0,0,0-.1,0-.1-.2-.2-.3-.3,0,0-.1-.1-.2-.2,0,0,.1,0,.1,0,.1,0,.2,0,.3,0,.2,0,.3,0,.5,0,.2,0,.4,0,.6,0,.1,0,.3,0,.4,0,0,0,.2,0,.2,0,.1,0,.3,0,.4,0,0,0,.1,0,.2,0,0,0,0,0,0,0,0-.1,0-.3,0-.4,0-.2,0-.4,0-.5,0,0,0,0,0,0,0,0,0-.2.1-.3,0,0,.1-.1.2-.2,0,0,0,0,0,0,0,0,0,0,.1,0ZM28.8,27.9c0-.1,0-.2.1-.2,0,0,.2,0,.2,0,0,0,0,0,0,0,0,0,.1-.1.2-.2,0,0,0,0,0,0,0,0,0,0,0,0-.2,0-.3,0-.5,0-.1,0-.3,0-.4,0,0,0-.1,0-.2,0,0,0,0,0,0-.1,0-.1,0-.2,0-.3,0,0,0-.2,0-.2.1,0,.2,0,.3,0,.2,0,.5,0,.7,0,0,0,0,0,.1,0,0,0,0,0,0,0,0,0,0,0,0,0,0,0,0,0,0,0-.1,0-.3-.1-.4-.2-.1,0-.3-.1-.5-.1,0,0-.1,0-.2,0,0,0-.2-.1-.3-.2,0,0-.1,0-.1.1,0,0,0,.2,0,.3,0,.2,0,.3-.3.2-.1,0-.2,0-.4,0-.1,0-.2,0-.2-.1,0,0,0-.2,0-.3,0,0,0-.1,0-.2-.2,0-.3,0-.5.1-.2.1-.3.1-.5,0,0,0,0,0,0,0-.2.1-.4.2-.6.3-.1,0-.2,0-.3.1,0,0,0,0,0,0,0,0,0,0,0,0,.1,0,.3,0,.4,0,.2,0,.3,0,.5,0,.2,0,.4,0,.6,0,.1,0,.2,0,.1.2,0,0,0,.1,0,.2,0,0,0,.1,0,.1,0,0-.1,0-.2,0-.2,0-.4,0-.6,0-.2,0-.4,0-.6,0,0,0,0,0,0,0,0,0,0,.1.1.2.1.1.2.2.4.2,0,0,0,0,.1,0,0,0,0,0,.1,0,0,0,0,0,.1,0,0,0,.1,0,.2,0,.2,0,.3.1.5,0,0,0,.1,0,.1,0,0-.1,0-.2,0-.3,0-.1,0-.2.2-.2,0,0,.1,0,.2,0,0,0,.2,0,.3,0,0,0,0,0,0,0,0,0,0,0,0,.1,0,.1,0,.2,0,.3,0,0,0,.1.1.1.2,0,.4-.1.6-.2,0,0,.1,0,.2,0,0,0,0,0,0,0Z"/>
  <path class="st0" d="M.9,26.9c.1-.1.3-.2.3-.4,0-.2.1-.5.3-.6.1,0,.2-.2.4-.3,0,0,0,0,0,0,0,0,.2,0,.3,0,0,0,0,0,0,0,0-.2.2-.2.3-.2,0,0,.2,0,.2,0,.1,0,.2,0,.3-.1.1,0,.2,0,.3-.1.2-.2.5-.2.8-.2.1,0,.2,0,.4,0,0,0,.1,0,.2,0,.3,0,.7,0,1,0,.3,0,.5,0,.8,0,.1,0,.3,0,.4,0,0,0,0,0,.1,0,.1,0,.2,0,.3.1,0,0,.2,0,.3,0,0,0,.2,0,.3.1,0,0,.1,0,.2.1,0,0,.2,0,.2,0,0,0,.1.2,0,.3,0,.2,0,.2.2.1.1,0,.2,0,.3,0,0,0,.1,0,.1,0,0,.1.2.2.3.4,0,0,.2.2.2.3,0,.1.1.3.2.4,0,0,0,0,0,0,0,0,0,0,0-.1,0,0,0-.1,0-.1,0,0,0,0,0,0,.1-.1.2-.3.2-.4,0,0,0,0,0-.1.2,0,.4-.2.5-.4.1,0,.3-.2.5-.2,0,0,.2,0,.3,0,0,0,0,0,.1,0,.2,0,.3-.1.5-.2.1,0,.3,0,.4,0,.1,0,.2,0,.4,0,.5,0,.9,0,1.4,0,0,0,.1,0,.2,0,.1,0,.2,0,.3,0,.2.1.4,0,.6,0,0,0,0,0,.1,0,.2,0,.4,0,.5,0,0,0,0,0,0,0,0,0,0,.1,0,.1,0,0,0,.1,0,.2,0,0,0,.1,0,.2,0,0,0,0,0,0,0,0,0,0,0,.1,0,0,0,.2,0,.2,0,0,0,0,0,0,0,0-.1,0-.2,0,0,0-.2,0-.2,0-.2,0-.3,0-.5,0-.2,0-.4,0-.6,0-.2,0-.3,0-.5.1-.2,0-.3,0-.5.1-.2,0-.4.1-.5.2,0,0-.2,0-.3.1-.1,0-.3.1-.4.2,0,0,0,0,0,0,0,0,0,0,.1,0,.2,0,.2.1.2.3,0,0,0,0,0,0,0,0,0,0,0,.1,0,0,.1.1.2.2,0,.1.1.2.3.3,0,0,.1,0,.2,0,.1,0,.2,0,.3.1,0,0,.1,0,.2,0,.1,0,.2,0,.3,0,.2,0,.4,0,.6,0,.1,0,.3,0,.4,0,.1,0,.3,0,.4,0,.1,0,.3,0,.4,0,0,0,.2,0,.3,0,0,0,0,0,0,0,0,0,0,0,0,0,0,0,0,.1,0,.1-.2,0-.2.2,0,.3,0,0,0,0,0,.1,0,0,0,0,0,0,0,0,0,.1,0,.2,0,0,0,0,.1,0,.1,0,0,.2,0,.3,0,0,0,0,0,0-.2-.2-.3-.1-.5-.1,0,0-.2,0-.3,0,0,0-.2,0-.3,0-.1,0-.2,0-.3,0-.4,0-.7,0-1.1,0-.2,0-.5,0-.7-.1,0,0,0,0-.1,0,0,0,0,0-.1,0,0,0,0-.1,0-.2,0,0,0,0-.1,0-.2,0-.4,0-.6,0-.2,0-.5,0-.7-.1,0,0-.1,0-.2,0,0,0-.2,0-.2-.1-.2-.1-.4-.3-.6-.4-.1-.1-.2-.3-.3-.4,0-.1-.1-.3-.2-.4,0,0,0,0,0,0,0,0,0,.2,0,.2,0,0,0,0,0,.1,0,0-.1.1-.1.2,0,.1-.2.2-.3.3-.1,0-.2.2-.3.3,0,0-.2.1-.3.2-.1,0-.2,0-.3,0-.1,0-.2,0-.2,0,0,0,0,.2-.1.3,0,0,0,0,0,0-.2,0-.3,0-.5.1-.2,0-.4,0-.6.1-.1,0-.3,0-.4,0-.2,0-.4,0-.6,0,0,0-.1,0-.2,0-.2,0-.4,0-.7,0-.3,0-.6,0-.9,0-.1,0-.3,0-.4,0-.1,0-.3,0-.4-.1-.1,0-.2,0-.3-.1,0,0-.1,0-.2-.2,0-.1,0-.1-.2,0,0,0,0,0,0,0-.2,0-.2-.2-.3-.3,0,0,0,0-.1,0,0,0-.2,0-.2,0-.3-.2-.5-.4-.7-.7,0,0,0,0,0-.1,0,0,0,0,0-.1,0,0,0,0,0-.1,0,0,0-.1-.1-.1,0,0-.2,0-.3,0,0,0,0,0,0,0,0,0,0,0,0,0ZM8.1,27.1s0,0,0,0c-.2,0-.2-.2-.2-.3,0-.1,0-.3-.2-.3-.1,0-.2-.1-.3-.2-.1-.1-.3-.1-.5-.1-.1,0-.2,0-.3,0,0-.1-.2-.1-.3-.1-.2,0-.3,0-.4-.1,0,0-.1,0-.2,0,0,0,0,0-.1,0,0,0-.2,0-.3,0-.2,0-.3,0-.4.2,0,0,0,0,0,0-.3,0-.5,0-.7.2,0,0,0,0-.1,0-.2,0-.3.1-.5.2,0,0,0,0,0,0,0,0,.1,0,.2,0,0,0,.1,0,.1.1,0,0,0,.2,0,.3,0,0,0,0,0,0,0,0,0,0,0,0,0,.1.2.2.3.3,0,.1.2.2.3.2.2,0,.3,0,.5.1.1,0,.3.1.4.1.1,0,.3,0,.4,0,0,0,0,0,0,0,0,0,.1,0,.2,0,0,0,0,0,0,0,.2,0,.4,0,.5,0,.2,0,.3-.1.5-.2.1,0,.2-.1.3-.1,0,0,.1,0,.1,0,.1,0,.3-.2.4-.3,0,0,.1-.2.3-.2,0,0,.1,0,.2,0Z"/>
  <path class="st0" d="M53.1,26.3c0,0,0,.1,0,.2,0,0-.1.1-.2.2-.3.2-.5.2-.8.3-.1,0-.2,0-.3,0,0,0,0,0,0,0,0,0,.2,0,.3,0,.2,0,.3.1.5.2,0,0,0,0,0,0,.1,0,.2,0,.2.2,0,.1,0,.3,0,.4,0,.2,0,.4,0,.6,0,.2,0,.3.1.5,0,0,0,0,0,0,0,0,0,0-.1,0-.2,0-.3,0-.5,0-.1,0-.2,0-.3,0,0,0,0,0,0,0-.1,0-.2,0-.3,0-.3,0-.5,0-.8,0-.2,0-.3,0-.5,0,0,0-.1,0-.2,0,0,0,0,0-.1,0,0,0,0,0,0-.1,0,0,.1,0,.2-.1,0,0,0,0,0-.1,0,0,0,0,0,0,0,0,0,0,0-.2,0-.1,0-.3,0-.4,0-.1,0-.3,0-.4,0,0,0,0,0-.1,0,0,0,0,0,0-.1,0-.2,0-.3,0,0,0,0,0-.1,0-.2,0-.5,0-.7,0-.5,0-1,0-1.5,0-.3,0-.5,0-.8,0,0,0,0,0-.1,0,0,0,0,0,0,0,0,0,.2-.2,0-.3,0,0,0-.1,0-.2,0-.1,0-.3,0-.4,0,0,0,0,0,0,0,0,.2,0,.2,0,.2,0,.3,0,.5,0,0,0,.2,0,.3,0,.2,0,.3,0,.5,0,0,0,0,0,0,0,.2,0,.4,0,.6,0,.2,0,.4,0,.6,0,.3,0,.6,0,.9,0,0,0,0,0,.1,0,0,0,0,0,0,0,0,0,0-.3-.1-.4,0,0-.2,0-.2,0-.2,0-.4,0-.5,0,0,0-.1,0-.2,0,0,0-.2,0-.3,0-.7,0-1.4,0-2.2,0-.1,0-.2,0-.3,0,0,0-.1,0-.2,0,0,0,0,0,0-.1,0,0,0-.1,0-.2,0,0,0-.1,0-.2.1,0,.1-.3,0-.4,0,0,0,0-.1-.2,0,0,.1,0,.2,0,.2,0,.4.1.7,0,0,0,.2,0,.2,0,.2,0,.4,0,.6,0,.1,0,.2-.1.4-.1.6,0,1.1,0,1.7,0,.2,0,.4,0,.7,0,.3,0,.5,0,.8,0,.1,0,.3,0,.4,0,0,0,0,0,.1,0,0,0,0,0,0,.1,0,0,0,0,0,0,0,0,0,0,0,0,.1,0,.2,0,.3,0,.1,0,.3,0,.4.1,0,0,.1,0,.2.2,0,0,.1.2.1.3,0,0,0,0,0,0v.3Z"/>
  <path class="st0" d="M16.9,26.4c0,0,.1,0,.2,0,.2,0,.4.1.6,0,.1,0,.3,0,.4,0,.1,0,.3,0,.4,0,.1,0,.3,0,.4,0,.2,0,.4,0,.6,0,0,0,0,0,.1,0,0,0,0,0,0,0,0,0,0,.1,0,.2,0,0,0,.1,0,.2,0,0,0,0,0,0,0,0,0,0,.1,0,0,0,0,.1,0,.2,0,.2,0,.3,0,.5,0,0,0,.1,0,.1,0,0-.1,0-.2.1,0,0,0,0,0,0,0,0,.2,0,.3,0,.1,0,.3,0,.4,0,0,0,0,0,0,0,.4,0,.8,0,1.2,0,.2,0,.4,0,.6-.1,0,0,.1,0,.1,0,0,0,.1,0,.2.1,0,0,0,0,0,0,0,0,0,0,0,.1,0,0-.1.2,0,.3,0,0,0,0,0,.1,0,0,0,0,0,.1,0,0,0,.2,0,.3,0,0,0,0,0,.1-.2,0-.4,0-.6,0,0,0,0,0-.1,0-.2,0-.3,0-.4-.1-.1,0-.3,0-.4,0-.2,0-.3.1-.5,0-.1,0-.2,0-.3,0-.2,0-.5,0-.7,0-.1,0-.3,0-.4,0-.2,0-.4,0-.5,0-.2,0-.5-.1-.7-.2-.1,0-.2-.1-.3-.2,0,0-.1,0-.2-.1-.1-.1-.2-.3-.2-.5,0-.2,0-.3,0-.5,0,0,0-.2-.1-.2,0-.1,0-.1,0-.2,0,0,.1,0,.2,0,0,0,0-.1,0-.2,0,0-.2-.2-.2-.3,0,0,0,0,0-.1Z"/>
  <path class="st0" d="M19.8,25.9c-1.2,0-2.1,0-3.1,0,0,0-.1,0-.2,0,0,0,0,0,0-.1,0,0,0,0,0,0,0-.1,0-.2,0-.3,0,0,0,0,0-.2,0,0,0-.2,0-.3,0,0,0-.1,0-.1.3,0,.6,0,.9,0,.3,0,.5,0,.8,0,.2,0,.4,0,.7,0,.2,0,.3,0,.5,0,.2,0,.4,0,.5,0,0,0,0,0,.1,0,0,0,0,0,.1,0,.2,0,.3,0,.5,0,.3,0,.6,0,1,0,.3,0,.6,0,.8-.1,0,0,.3,0,.3.2,0,0,0,0,0,0,0,0,0,.2,0,.3,0,0,0,0,0,.1,0,.1,0,.2,0,.3,0,0,0,.1,0,.1,0,0,0,0-.1,0-1.1,0-2.1,0-3,0Z"/>
  <path class="st0" d="M42.1,28.1c0,0,.2,0,.3,0,.1,0,.2,0,.4,0,.2,0,.5,0,.7,0,.1,0,.3,0,.4,0,.1,0,.2,0,.3,0,.2,0,.3,0,.5,0,.3,0,.6,0,.9-.1.1,0,.2,0,.2.1,0,.1,0,.3,0,.4,0,0,0,0,0,0,0,0,0,0,0,0-.1,0,0,.2,0,.3,0,0,0,0,0,0,0,0,0,0-.1,0,0,0,0,0,0,0-.2.1-.2.1-.3,0-.2,0-.3-.1-.5-.1,0,0,0,0,0,0-.2.1-.4,0-.6,0,0,0,0,0,0,0-.2,0-.4,0-.7,0,0,0,0,0,0,0,0,0-.2,0-.3,0-.4,0-.9,0-1.3,0-.2,0-.4,0-.5,0,0,0-.1,0-.1,0-.1,0-.2,0-.3,0-.3,0-.5,0-.8,0-.1,0-.2,0-.4,0,0,0-.1,0,0,0,0,0,0-.2,0-.3,0,0,0-.2,0-.2,0,0,0,0,0,0,0,0,0,0,0,0,0-.2,0-.4,0-.5,0-.1,0-.3.1-.4,0,0,0-.1,0-.2,0,0,0,0,0,0,0-.2,0-.3,0-.5,0,0,0,0,0,0,.2,0,.3,0,.5,0,.2,0,.5,0,.7,0,0,0,0,0,.1,0,.3,0,.5,0,.8,0,.8,0,1.6,0,2.4,0,.2,0,.4,0,.5,0,.2,0,.5,0,.7,0,.1,0,.2,0,.3,0,0,0,0,0,.1,0,0,0,0,0,0,0-.1.2,0,.4,0,.6,0,.1,0,.3-.2.3,0,0-.2,0-.3,0,0,0-.1,0-.2,0-.8,0-1.7,0-2.5,0-.1,0-.3,0-.4,0,0,0-.1,0,0,.1,0,.1,0,.2,0,.3,0,0,0,0,0,.1Z"/>
  <path class="st0" d="M45.1,25.9c-.2,0-.4,0-.6,0-.2,0-.5,0-.7,0-.1,0-.3,0-.4,0,0,0,0,0-.1,0-.4,0-.9,0-1.3,0-.2,0-.5,0-.7,0-.1,0-.3,0-.4,0-.3,0-.6,0-.8,0-.1,0-.3,0-.4,0-.1,0-.1,0,0-.1,0-.1,0-.2,0-.3,0,0,0,0,0,0,0,0,0,0,0-.2,0-.1,0-.2,0-.3,0,0,0,0,0,0,0,0,.1,0,.2,0,.2,0,.4,0,.7,0,.3,0,.6,0,.9,0,.6,0,1.1,0,1.7,0,.2,0,.4,0,.6,0,.2,0,.4,0,.6,0,.2,0,.5,0,.7,0,.2,0,.4,0,.6-.1,0,0,0,0,0,0,.1,0,.2.2.2.3,0,.1,0,.2,0,.4,0,.1,0,.2,0,.3,0,0,0,0,0,.1,0,0,0,0-.1,0-.2,0-.4,0-.6,0Z"/>
</svg>