<?xml version="1.0" encoding="UTF-8"?>
<svg id="Layer_1" xmlns="http://www.w3.org/2000/svg" version="1.1" viewBox="0 0 54 54">
  <!-- Generator: Adobe Illustrator 29.3.1, SVG Export Plug-In . SVG Version: 2.1.0 Build 151)  -->
  <defs>
    <style>
      .st0 {
        fill: #fff;
      }
    </style>
  </defs>
  <g>
    <g>
      <g>
        <path class="st0" d="M52.9,19.7v1.6c-.3.5-.4,1-.9,1.3s-1.5.7-2.3.8-1.1,0-1.1.1v2.6c-.7.1-1.5.1-2.2,0v-8.4h.1c0-.1,3.8-.1,3.8-.1,0,0,.8.3.9.3.4.2.8.5,1.1.9s.3.6.5.9ZM48.7,19.6c0,0-.1.1-.1.2,0,.3,0,1.1,0,1.4s0,.2,0,.3.9,0,1,0c1.4-.2,1.3-1.8,0-1.9s-.9,0-1.1,0Z"/>
        <path class="st0" d="M37.8,17.8s.1-.2.2-.2c.1,0,1.8,0,1.9,0s.2.2.2.2v5.4c0,0,.3.6.4.7.5.5,1.9.5,2.3-.1s.3-.5.3-.6v-5.4s.1-.2.2-.2c.1,0,1.8,0,1.9,0s.2.2.2.2v5.3c0,.1-.2.8-.2,1-.6,1.8-2.3,2.3-4.1,2.2s-2.7-1.2-3-2.7-.1-.5-.1-.6v-5.3Z"/>
      </g>
      <path class="st0" d="M36.9,19.7h-2.1v6.4s-.1.2-.2.2c-.1,0-1.8,0-1.9,0s-.2-.2-.2-.2v-6.3h-.1c0-.1-1.8-.1-1.8-.1,0,0-.2-.1-.2-.2-.1-.3,0-1.5,0-1.8h6.5v1.8s-.1.1,0,.2Z"/>
    </g>
    <g>
      <path class="st0" d="M5.4,17.5l1,.3c.2,0,1,.5,1.1.6s0,.1,0,.2c0,.2-.4,1.3-.4,1.4,0,.1-.4.2-.6.2s-.2-.2-.4-.3c-.6-.4-1.4-.6-2.1-.4s-.6.3-.5.8,2.3,1.1,2.8,1.4c1.6,1,1.8,2.9.3,4.1s-4.1.7-5.5-.4v-.3c.2-.2.3-1.2.4-1.3s.5,0,.5,0c0,0,.1.1.2.2.6.4,1.4.7,2.1.7s.7-.1.9-.3c.4-.4,0-.8-.4-1-.8-.4-1.8-.6-2.6-1.2-1.4-1.1-1.2-3.1.2-4l1.1-.5h1.8Z"/>
      <path class="st0" d="M27.2,17.7c2.1.3,3.3,2.9,1.6,4.5s-.7.3-.8.5-.1,0,0,.2l1.9,3c.1.2,0,.4-.1.4s-1.7,0-2,0-.2,0-.3,0l-1.9-3c-.1,0-.5,0-.5.1v2.8s-.1.2-.2.2c-.3.1-1.6,0-2,0v-8.4h.1c0-.1,4.2-.1,4.2-.1ZM26.5,19.5c-.4,0-.9,0-1.3,0h-.1v1.7h.1c0,.1,1.3.1,1.3.1,0,0,.5-.2.6-.2.4-.3.4-1,.1-1.3s-.6-.3-.6-.3Z"/>
      <path class="st0" d="M19.1,17.7l3.1,8.4c0,0-.1.1-.3.2-.3,0-1.6,0-1.9,0s-.2,0-.2-.1c-.2-.4-.3-1.2-.6-1.6-.1,0-2.3,0-2.6,0s-.2,0-.3.1c-.2.3-.4,1.4-.6,1.5s-.2,0-.3,0c-.3,0-1.9,0-2,0v-.4s3-8.1,3-8.1c0,0,.2,0,.2,0,.7,0,1.6,0,2.3,0ZM17.1,22.7h1.3c0,0,.2-.2.1-.3-.1-.2-.6-1.9-.8-1.9h-.2c0,.7-.5,1.3-.6,1.8s0,.3.1.4Z"/>
      <path class="st0" d="M12.5,19.7v6.3c0,.2-.3.2-.5.2-.3,0-1.5,0-1.6,0s-.2-.2-.2-.2v-6.3h-.1c0-.1-1.9-.1-1.9-.1h-.1v-1.9h.1c0-.1,6.3-.1,6.3-.1h.1v1.9h-.1c0,.1-2,.1-2,.1Z"/>
    </g>
  </g>
  <path class="st0" d="M32.4,29.4l1.1,3.4,1.1-3.4h1.9l-2.4,5.6c-.1.2-1.1,0-1.4,0,0,0-.1-.2-.2-.3-.7-1.5-1.6-3.5-2.1-5.1s0-.2,0-.3h1.9Z"/>
  <path class="st0" d="M22.5,29.4h.1c.4,1.1.6,2.3,1,3.2s0,.2.2.2l1.1-3.4h1.9l-2.4,5.5h-.1c0,.1-1.3.2-1.3.2l-2.4-5.7h1.9Z"/>
  <g>
    <rect class="st0" x="27.8" y="29.4" width="1.7" height="5.7"/>
    <path class="st0" d="M28.2,26.9c.2,0,.9,0,1.1,0,.3.2.3,1.4,0,1.6s-1.1,0-1.3,0-.2-.2-.3-.4c0-.4-.1-1.2.4-1.3Z"/>
  </g>
  <g>
    <path class="st0" d="M10.9,29.4v3.7s.1.2.2.3c.3.4.9.4,1.3,0s.3-.3.3-.3v-3.6h.1c0-.1,1.7-.1,1.7-.1v5.7h-1.7v-.6c-1.2,1-3,1-3.6-.6s-.2-.6-.2-.6v-3.9h1.8Z"/>
    <path class="st0" d="M7.7,29.7c0,0-.2,1.1-.3,1.2-.3.4-.6,0-.9-.2s-.9-.3-1.2-.3-.8.5-.3.8,1.3.6,1.4.6.2-.2.3-.3c.3-.1,1.1.5,1.3.8.6.8.3,1.9-.5,2.5-1.1.9-3,.5-4.1-.3,0,0,.3-1.3.3-1.3.3-.2.9.3,1.2.5s1.6.3,1.7-.3c.1-.3-.9-.8-1-.8s-.3.2-.4.3c-.2,0-.7-.2-.9-.3-1-.6-1.5-1.4-1-2.5.7-1.6,3.2-1.3,4.5-.5Z"/>
    <path class="st0" d="M17.5,29.4c0,.2,0,.4,0,.5s0,.2,0,.2c.2-.5,1-.9,1.5-.9s.5.1.7,0l-.5,1.9h0c-.4-.2-1.1-.2-1.5.2s-.2.5-.2.5v3.1h-1.8v-5.7h1.7Z"/>
  </g>
  <g>
    <path class="st0" d="M48.5,29.4v.8c.6-.8,1.4-1.1,2.3-.8l-.4,2c-.2,0-.3-.1-.5-.2-.5,0-1,0-1.2.5s-.1.4-.1.4v3h-1.8v-5.7h1.7Z"/>
    <g>
      <path class="st0" d="M42.2,36.5h-1.6c-.2-.1-.6-.2-.8-.3-4.5-1.9-3-8.7,2-8.3s5.4,6.6,1.2,8.3-.6.1-.8.3ZM40.9,29.3c-1.2.2-2.2,1.2-2.5,2.4l.7.5-.7.5c.7,3.3,5.2,3.3,5.9,0l-.7-.5c.1-.2.8-.3.7-.6s-.4-1.1-.7-1.4c-.7-.8-1.8-1.2-2.8-1Z"/>
      <path class="st0" d="M41.9,29.7l.3,2.6-1.2,2.5c-.1,0-.1-.2-.1-.3-.2-.8,0-1.6-.3-2.4.3-.7.8-1.5,1-2.2s0-.3.3-.2ZM41.7,32c0-.1-.4,0-.6,0v.4s.5,0,.5,0c0,0,.1-.4,0-.5Z"/>
    </g>
  </g>
</svg>